<?xml version="1.0" encoding="utf-8"?><svg width="96" height="96" viewBox="0 0 96 96" xmlns="http://www.w3.org/2000/svg" xmlns:xlink="http://www.w3.org/1999/xlink"><svg width="24" height="24" viewBox="0 0 24 24" id="ic_alarm_24px" y="48"><path d="M22 5.72l-4.6-3.86-1.29 1.53 4.6 3.86L22 5.72zM7.88 3.39L6.6 1.86 2 5.71l1.29 1.53 4.59-3.85zM12.5 8H11v6l4.75 2.85.75-1.23-4-2.37V8zM12 4c-4.97 0-9 4.03-9 9s4.02 9 9 9a9 9 0 0 0 0-18zm0 16c-3.87 0-7-3.13-7-7s3.13-7 7-7 7 3.13 7 7-3.13 7-7 7z" fill="#00f"/></svg><svg width="24" height="24" viewBox="0 0 24 24" id="ic_assessment_24px" x="24" y="48"><path d="M19 3H5c-1.1 0-2 .9-2 2v14c0 1.1.9 2 2 2h14c1.1 0 2-.9 2-2V5c0-1.1-.9-2-2-2zM9 17H7v-7h2v7zm4 0h-2V7h2v10zm4 0h-2v-4h2v4z" fill="#00f"/></svg><svg width="24" height="24" viewBox="0 0 24 24" id="ic_assignment_24px" x="48" y="48"><path d="M19 3h-4.18C14.4 1.84 13.3 1 12 1c-1.3 0-2.4.84-2.82 2H5c-1.1 0-2 .9-2 2v14c0 1.1.9 2 2 2h14c1.1 0 2-.9 2-2V5c0-1.1-.9-2-2-2zm-7 0c.55 0 1 .45 1 1s-.45 1-1 1-1-.45-1-1 .45-1 1-1zm2 14H7v-2h7v2zm3-4H7v-2h10v2zm0-4H7V7h10v2z" fill="#00f"/></svg><svg width="24" height="24" viewBox="0 0 24 24" id="ic_build_24px" x="72" y="48"><path d="M22.7 19l-9.1-9.1c.9-2.3.4-5-1.5-6.9-2-2-5-2.4-7.4-1.3L9 6 6 9 1.6 4.7C.4 7.1.9 10.1 2.9 12.1c1.9 1.9 4.6 2.4 6.9 1.5l9.1 9.1c.4.4 1 .4 1.4 0l2.3-2.3c.5-.4.5-1.1.1-1.4z" fill="#00f"/></svg><svg width="48" height="48" viewBox="0 0 48 48" id="ic_copyright_48px"><path d="M24 4C12.95 4 4 12.95 4 24s8.95 20 20 20 20-8.95 20-20S35.05 4 24 4zm0 36c-8.82 0-16-7.18-16-16S15.18 8 24 8s16 7.18 16 16-7.18 16-16 16zm-3.84-18.27c.11-.65.31-1.23.6-1.74s.69-.92 1.18-1.23c.47-.29 1.06-.45 1.79-.46.48.01.92.09 1.3.26.41.18.75.42 1.04.72s.51.66.67 1.06.25.83.27 1.28h3.58c-.03-.94-.22-1.8-.55-2.58s-.81-1.45-1.41-2.02-1.32-1-2.16-1.31-1.77-.47-2.79-.47c-1.3 0-2.43.22-3.39.67s-1.76 1.06-2.4 1.84-1.12 1.68-1.43 2.71-.46 2.12-.46 3.27v.55c0 1.16.16 2.25.47 3.28s.79 1.93 1.43 2.7 1.44 1.38 2.41 1.83 2.1.67 3.4.67c.94 0 1.82-.15 2.64-.46s1.54-.73 2.16-1.27 1.12-1.16 1.48-1.88.57-1.48.6-2.3h-3.58a2.848 2.848 0 0 1-1.02 2.07c-.3.25-.65.45-1.05.59-.38.13-.78.2-1.21.2-.72-.02-1.31-.17-1.79-.47-.5-.32-.9-.73-1.19-1.24s-.49-1.09-.6-1.75-.15-1.3-.15-1.97v-.55c0-.68.05-1.35.16-2z" fill="#00f"/></svg><svg width="48" height="48" viewBox="0 0 48 48" id="ic_delete_48px" x="48"><path d="M12 38c0 2.21 1.79 4 4 4h16c2.21 0 4-1.79 4-4V14H12v24zM38 8h-7l-2-2H19l-2 2h-7v4h28V8z" fill="#00f"/></svg><svg width="24" height="24" viewBox="0 0 24 24" id="ic_menu_24px" y="72"><path d="M0 0h24v24H0z" fill="none"/><path d="M3 18h18v-2H3v2zm0-5h18v-2H3v2zm0-7v2h18V6H3z" fill="#00f"/></svg></svg>