<?xml version="1.0" encoding="utf-8"?><svg width="144" height="144" viewBox="0 0 144 144" xmlns="http://www.w3.org/2000/svg" xmlns:xlink="http://www.w3.org/1999/xlink"><svg width="48" height="48" viewBox="0 0 48 48" id="ic_alarm_48px"><path d="M44 11.44l-9.19-7.71-2.57 3.06 9.19 7.71L44 11.44zM15.76 6.78l-2.57-3.06L4 11.43l2.57 3.06 9.19-7.71zM25 16h-3v12l9.49 5.71L33 31.24l-8-4.74V16zm-1.01-8C14.04 8 6 16.06 6 26s8.04 18 17.99 18S42 35.94 42 26 33.94 8 23.99 8zM24 40c-7.73 0-14-6.27-14-14s6.27-14 14-14 14 6.27 14 14-6.26 14-14 14z" fill="#fff"/></svg><svg width="48" height="48" viewBox="0 0 48 48" id="ic_assessment_48px" x="48"><path d="M38 6H10c-2.21 0-4 1.79-4 4v28c0 2.21 1.79 4 4 4h28c2.21 0 4-1.79 4-4V10c0-2.21-1.79-4-4-4zM18 34h-4V20h4v14zm8 0h-4V14h4v20zm8 0h-4v-8h4v8z" fill="#fff"/></svg><svg width="48" height="48" viewBox="0 0 48 48" id="ic_assignment_48px" y="48"><path d="M38 6h-8.37c-.82-2.32-3.02-4-5.63-4s-4.81 1.68-5.63 4H10c-2.21 0-4 1.79-4 4v28c0 2.21 1.79 4 4 4h28c2.21 0 4-1.79 4-4V10c0-2.21-1.79-4-4-4zM24 6c1.1 0 2 .89 2 2s-.9 2-2 2-2-.89-2-2 .9-2 2-2zm4 28H14v-4h14v4zm6-8H14v-4h20v4zm0-8H14v-4h20v4z" fill="#fff"/></svg><svg width="48" height="48" viewBox="0 0 48 48" id="ic_build_48px" x="48" y="48"><path d="M45.4 37.9L27.1 19.6c1.8-4.6.8-10.1-2.9-13.8-4-4-10-4.8-14.8-2.5l8.7 8.7-6.1 6.1-8.7-8.7C1 14.2 1.8 20.2 5.8 24.2c3.7 3.7 9.2 4.7 13.8 2.9l18.3 18.3c.8.8 2.1.8 2.8 0l4.7-4.7c.8-.7.8-2 0-2.8z" fill="#fff"/></svg><svg width="48" height="48" viewBox="0 0 48 48" id="ic_copyright_48px" x="96"><path d="M24 4C12.95 4 4 12.95 4 24s8.95 20 20 20 20-8.95 20-20S35.05 4 24 4zm0 36c-8.82 0-16-7.18-16-16S15.18 8 24 8s16 7.18 16 16-7.18 16-16 16zm-3.84-18.27c.11-.65.31-1.23.6-1.74s.69-.92 1.18-1.23c.47-.29 1.06-.45 1.79-.46.48.01.92.09 1.3.26.41.18.75.42 1.04.72s.51.66.67 1.06.25.83.27 1.28h3.58c-.03-.94-.22-1.8-.55-2.58s-.81-1.45-1.41-2.02-1.32-1-2.16-1.31-1.77-.47-2.79-.47c-1.3 0-2.43.22-3.39.67s-1.76 1.06-2.4 1.84-1.12 1.68-1.43 2.71-.46 2.12-.46 3.27v.55c0 1.16.16 2.25.47 3.28s.79 1.93 1.43 2.7 1.44 1.38 2.41 1.83 2.1.67 3.4.67c.94 0 1.82-.15 2.64-.46s1.54-.73 2.16-1.27 1.12-1.16 1.48-1.88.57-1.48.6-2.3h-3.58a2.848 2.848 0 0 1-1.02 2.07c-.3.25-.65.45-1.05.59-.38.13-.78.2-1.21.2-.72-.02-1.31-.17-1.79-.47-.5-.32-.9-.73-1.19-1.24s-.49-1.09-.6-1.75-.15-1.3-.15-1.97v-.55c0-.68.05-1.35.16-2z" fill="#fff"/></svg><svg width="48" height="48" viewBox="0 0 48 48" id="ic_delete_48px" x="96" y="48"><path d="M12 38c0 2.21 1.79 4 4 4h16c2.21 0 4-1.79 4-4V14H12v24zM38 8h-7l-2-2H19l-2 2h-7v4h28V8z" fill="#fff"/></svg><svg width="24" height="24" viewBox="0 0 24 24" id="ic_menu_24px" x="48" y="96"><path d="M3 18h18v-2H3v2zm0-5h18v-2H3v2zm0-7v2h18V6H3z" fill="#fff"/></svg><svg width="48" height="48" viewBox="0 0 48 48" id="ic_menu_48px" y="96"><path d="M6 36h36v-4H6v4zm0-10h36v-4H6v4zm0-14v4h36v-4H6z" fill="#fff"/></svg></svg>